<?xml version="1.0" encoding="UTF-8" standalone="no"?>
<!-- Generator: Adobe Illustrator 19.1.0, SVG Export Plug-In . SVG Version: 6.00 Build 0)  -->

<svg
   xmlns:dc="http://purl.org/dc/elements/1.1/"
   xmlns:cc="http://creativecommons.org/ns#"
   xmlns:rdf="http://www.w3.org/1999/02/22-rdf-syntax-ns#"
   xmlns:svg="http://www.w3.org/2000/svg"
   xmlns="http://www.w3.org/2000/svg"
   xmlns:sodipodi="http://sodipodi.sourceforge.net/DTD/sodipodi-0.dtd"
   xmlns:inkscape="http://www.inkscape.org/namespaces/inkscape"
   version="1.1"
   id="Layer_1"
   x="0px"
   y="0px"
   viewBox="0 0 799.9 309.1"
   style="enable-background:new 0 0 799.9 309.1;"
   xml:space="preserve"
   inkscape:version="0.91 r13725"
   sodipodi:docname="logo_noveo-university_white.svg"><metadata
     id="metadata17"><rdf:RDF><cc:Work
         rdf:about=""><dc:format>image/svg+xml</dc:format><dc:type
           rdf:resource="http://purl.org/dc/dcmitype/StillImage" /><dc:title></dc:title></cc:Work></rdf:RDF></metadata><defs
     id="defs15" /><sodipodi:namedview
     pagecolor="#ffffff"
     bordercolor="#666666"
     borderopacity="1"
     objecttolerance="10"
     gridtolerance="10"
     guidetolerance="10"
     inkscape:pageopacity="0"
     inkscape:pageshadow="2"
     inkscape:window-width="1194"
     inkscape:window-height="725"
     id="namedview13"
     showgrid="false"
     inkscape:zoom="0.37254656"
     inkscape:cx="399.95001"
     inkscape:cy="154.55"
     inkscape:window-x="300"
     inkscape:window-y="189"
     inkscape:window-maximized="0"
     inkscape:current-layer="Layer_1" /><style
     type="text/css"
     id="style3">
	.st0{fill:#3F403F;}
	.st1{fill:#2C2D79;}
	.st2{fill-rule:evenodd;clip-rule:evenodd;fill:#E93325;}
</style><path
     class="st0"
     d="M318.8,277.9c-0.5-4.5-3.2-6.3-7.7-6.3c-4.5,0-7,1.9-7,5.2c0,3.5,3.6,4.2,8.4,5.3c5.1,1.1,11.6,2.6,11.6,9.2  c0,6.9-6.2,9.5-12.1,9.5c-7.4,0-12.9-3.5-12.9-11h4c0.2,5.6,4.3,7.6,9.3,7.6c3.6,0,7.7-1.3,7.7-5.7c0-4-3.9-4.8-9.1-6  c-5-1.1-10.9-2-10.9-8.5c0-6.4,5.7-8.9,11.3-8.9c6.6,0,11.2,3.1,11.4,9.8H318.8L318.8,277.9z M675.2,302.8c-1.2,3.2-2.5,6.2-6.5,6.2  c-1,0-1.8-0.2-2.8-0.4v-3.3c1.2,0.3,1.8,0.5,2.4,0.5c1.2,0,2.2-0.8,2.6-1.9l1.8-4.1l-9-22.5h4.2l6.7,18l6.3-18h3.9L675.2,302.8  L675.2,302.8z M661.6,280.4h-4.5v13.2c0,2.1-0.1,3.3,2.5,3.3c0.7,0,1.2,0,2-0.1v3.2c-1.2,0.1-1.7,0.2-2.8,0.2  c-5.6,0-5.4-2.8-5.4-7.7v-12h-3.8v-3.1h3.8v-6.7h3.7v6.7h4.5V280.4L661.6,280.4z M645.7,299.9H642v-22.6h3.8V299.9L645.7,299.9z   M645.7,273.3H642v-4.6h3.8V273.3L645.7,273.3z M632.5,283.9c-0.3-3-2.3-4.1-5.5-4.1c-2.8,0-4.6,1.2-4.6,3.1c0,2.5,2.9,2.9,6,3.6  c3.8,0.9,8.8,2,8.8,6.9c0,4.4-3.7,7.3-9.4,7.3c-6.1,0-9.5-2.8-9.7-7.8h3.7c0.2,3.4,2.5,4.8,6.1,4.8c3.3,0,5.5-1.5,5.5-3.8  c0-2.5-2.5-3-5.7-3.8c-3.9-1-9.1-1.4-9.1-6.7c0-4.1,3.4-6.7,8.6-6.7c5.1,0,9,2.5,9,7.2H632.5L632.5,283.9z M616.2,280.7  c-0.4,0-0.6,0-1,0c-6.1,0-7.2,4.7-7.2,9.8v9.5h-3.7v-22.6h3.5v4.9c1.6-3.8,4.3-5.4,8.4-5.4V280.7L616.2,280.7z M589.8,279.8  c-3.6,0-6.2,2.6-6.7,6.9h13.1C595.9,282.4,593.5,279.8,589.8,279.8L589.8,279.8z M590,300.7c-6.7,0-10.6-4.4-10.6-11.7  c0-7.3,4.2-12.3,10.5-12.3c7.4,0,10.2,5.9,10.2,12.4v0.5h-17l0,0.3c0,4.8,2.7,7.7,7,7.7c3.2,0,5-1.4,6.1-4.8h3.6  C598.7,298,595.3,300.7,590,300.7L590,300.7z M560.2,277.4l6.4,19l6.2-19h3.9l-8.3,22.6h-4l-8.4-22.6H560.2L560.2,277.4z M552,299.9  h-3.8v-22.6h3.8V299.9L552,299.9z M552,273.3h-3.8v-4.6h3.8V273.3L552,273.3z M526.8,280.9c1.9-2.8,4.2-4.1,7.7-4.1  c5.5,0,7.5,3,7.5,8.2v15h-3.7v-13.3c0-3.6-0.2-6.7-4.9-6.7c-4.9,0-6.4,3.7-6.4,8.1v11.8h-3.7v-22.6h3.5V280.9L526.8,280.9z   M495.8,268.8v19.7c0,6,2.4,8.8,8.4,8.8c6.3,0,8.4-3,8.4-8.8v-19.7h4.2v18.6c0,8.8-3.1,13.3-12.6,13.3c-9,0-12.6-4.2-12.6-12.8v-19  H495.8L495.8,268.8z M463.9,279.8c-3.6,0-6.2,2.6-6.7,6.9h13.1C470,282.4,467.6,279.8,463.9,279.8L463.9,279.8z M464.1,300.7  c-6.7,0-10.6-4.4-10.6-11.7c0-7.3,4.2-12.3,10.5-12.3c7.4,0,10.2,5.9,10.2,12.4v0.5h-17l0,0.3c0,4.8,2.7,7.7,7,7.7  c3.2,0,5-1.4,6.1-4.8h3.6C472.8,298,469.5,300.7,464.1,300.7L464.1,300.7z M451.4,280.7c-0.4,0-0.6,0-1,0c-6.1,0-7.2,4.7-7.2,9.8  v9.5h-3.7v-22.6h3.5v4.9c1.6-3.8,4.3-5.4,8.4-5.4V280.7L451.4,280.7z M424.7,289.6c-2.7,0.3-6.4,0.7-6.4,4.3c0,2.3,1.7,3.8,4.5,3.8  c3.5,0,6.9-2.4,6.9-5.3v-4.1C428.3,289.3,426.4,289.4,424.7,289.6L424.7,289.6z M435.7,299.9c-0.8,0.3-1.7,0.4-2.5,0.4  c-2.1,0-3.2-1.2-3.3-3.3c-2.2,2.5-4.7,3.6-8.2,3.6c-4.5,0-7.2-2.5-7.2-6.4c0-4,2.7-6.4,8-7c5.4-0.7,7.2-0.5,7.2-3.6  c0-2.4-1.8-3.7-5.1-3.7c-3.5,0-5.3,1.3-5.6,4.6h-3.6c0.1-4.8,3.6-7.7,9.5-7.7c3,0,5.6,0.8,7.1,2.2c1.6,1.5,1.5,3.9,1.5,5.9  c0,3.4-0.2,6.7-0.2,10.1c0,1.7,0.4,2.2,1.5,2.2c0.3,0,0.5,0,0.9-0.1V299.9L435.7,299.9z M384.1,277.4l5.2,18.6l4.6-18.6h4.1  l4.8,18.6l5.1-18.6h3.9l-7.2,22.6h-3.9l-4.6-17.9l-4.6,17.9h-4l-7.3-22.6H384.1L384.1,277.4z M377.5,280.4H373v13.2  c0,2.1-0.1,3.3,2.5,3.3c0.7,0,1.2,0,2-0.1v3.2c-1.2,0.1-1.7,0.2-2.8,0.2c-5.6,0-5.4-2.8-5.4-7.7v-12h-3.8v-3.1h3.8v-6.7h3.7v6.7h4.5  V280.4L377.5,280.4z M364.7,271.9c-0.5-0.1-1.3-0.2-2.1-0.2c-2.4,0-2.8,0.5-2.8,3v2.6h4.3v3.1h-4.3v19.5H356v-19.5h-3.8v-3.1h3.8v-3  c0-4.2,2.3-5.8,6.3-5.8c0.9,0,1.3,0,2.4,0.2V271.9L364.7,271.9z M331.6,288.7c0,5.6,2.7,8.8,7.2,8.8c4.4,0,7-3.3,7-8.9  c0-5.4-2.7-8.8-7.1-8.8C334.3,279.8,331.6,283.3,331.6,288.7L331.6,288.7z M349.6,288.5c0,7.7-4,12.1-10.9,12.1  c-6.9,0-11-4.5-11-11.9c0-7.4,4.2-12,11.1-12C345.6,276.7,349.6,281,349.6,288.5L349.6,288.5z"
     id="path5"
     style="fill:#ffffff;fill-opacity:1" /><path
     class="st1"
     d="M300.5,243.3V115.5h33.7l45,83.5h0.5l0-83.5h26.5v127.7h-30.3l-48.3-86.2H327l0,86.2H300.5L300.5,243.3z   M637.1,206.1c0.8,11.9,12.7,17.6,26.2,17.6c9.9,0,18.7-2.3,26.5-4.9l3.8,19.5c-9.5,4-22,6.8-34.5,6.8c-31.5,0-49.5-18.2-49.5-47.2  c0-23.5,14.6-49.5,46.8-49.5c29.9,0,41.3,23.3,41.3,46.2c0,4.9-0.9,8.6-0.9,8.6L637.1,206.1L637.1,206.1z M654.7,167.7  c-12.1,0.1-17.1,11.2-17.8,18.8l34.2-1.2C671,185.3,670.4,167.5,654.7,167.7L654.7,167.7z M542.2,150.6c0,0,17.2,57.2,18.7,64.6h0.6  c1.5-7.6,18-64.6,18-64.6h26.8l-28.1,92.7h-33.9l-29.9-92.7h28.7H542.2L542.2,150.6z M754.5,224.7c-12.3,0-19-11.9-19-27.9  c0-13.6,5.3-27.9,19-27.9c13.1,0,18.4,14,18.4,27.7C772.9,213.5,765.9,224.7,754.5,224.7L754.5,224.7z M755.5,148.3  c-28.1,0-46.7,19.1-46.7,49.3c0,29.9,19.6,47.8,45.1,47.8c23.3,0,45.9-15.5,45.9-49.5C799.9,167.9,782.1,148.3,755.5,148.3  L755.5,148.3z M467,224.7c-12.3,0-19-11.9-19-27.9c0-13.6,5.3-27.9,19-27.9c13.1,0,18.4,14,18.4,27.7  C485.4,213.5,478.4,224.7,467,224.7L467,224.7z M468,148.3c-28.1,0-46.7,19.1-46.7,49.3c0,29.9,19.6,47.8,45.1,47.8  c23.3,0,45.9-15.5,45.9-49.5C512.3,167.9,494.5,148.3,468,148.3L468,148.3z"
     id="path7"
     style="fill:#ffffff;fill-opacity:1" /><path
     class="st2"
     d="M99.7,107.8c2.1-12.2,6.5-23.3,12.7-33c22.1,6.6,65.2,1.3,85.5-31.5c24.9,10.7,41.1,38.9,42.1,68.1  c16,5.6,21.9,32.8,12.7,60.5c-8.9,26.6-30.7,51.5-48.8,62.2c-16.5,22.4-46.6,46.1-75,55.2c-32.4,10.4-57.3,0.7-53.6-23.2  c32.3,28.4,76.7,1.9,103.9-28.2c5.7,2.1,13.2,1.3,21.6-2.3c1.1-0.5,2-0.9,3.1-1.5c18.7-17.7,47.7-60.2,24.5-81.7  c5.8-10.6,9.9-22.9,11.3-35.9c0.1-1.6,0.2-3.5,0.3-5.1c-17-41-66.2-28.9-87.6,8.6c-12.3-7.9-27.9-12.6-45.6-12.5  C104.5,107.6,102.1,107.7,99.7,107.8L99.7,107.8z M78,129.8c-23.4,33.6-23.4,80.9,18.4,96.4c-8,8.9-20.7,27.3-21,39.9  C33.4,266.7,0,241.4,0,203.7c0-1.9,0.1-3.7,0.2-5.7c3.3-38.7,35.6-73.1,76.1-85.6C76.8,118.4,77.4,124.3,78,129.8L78,129.8z"
     id="path9"
     style="fill:#ffffff;fill-opacity:1" /><path
     class="st0"
     d="M83.1,62.4c-6.7,26-2.3,58.8,0.9,82.2c4.4-8.7,12.9-19.1,17.5-23.4c-7.4-14-14.8-37.4-13.5-59.1l-0.1,0l-0.1,0  l-0.1,0l0,0l-0.1,0l-0.1,0l-0.1,0l-0.1,0l-0.1,0l-0.1,0l-0.1,0l-0.1,0l-0.1,0l-0.2,0l-0.1,0l-0.1,0l-0.1,0l-0.1,0l-0.1,0l-0.1,0  l-0.1,0l-0.1,0l-0.1,0l0,0l0,0l-0.1,0l-0.1,0l-0.1,0l-0.1,0l-0.1,0l-0.1,0l-0.1,0l-0.1,0l-0.1,0l0,0l0,0l-0.1,0l-0.1,0l-0.1,0  l-0.1,0l-0.2,0l-0.1,0l-0.1,0l-0.1,0l-0.1,0l0,0l-0.1,0l-0.1,0l-0.4,0l-0.1,0l-0.1,0l-0.1,0l0,0l-0.1,0l-0.1,0l-0.1,0L83.1,62.4  L83.1,62.4L83.1,62.4L83.1,62.4z M137.3,1.7C106.8,15.5,77.7,40,51.5,62.7c35.3-6.8,65.3-6.3,104.4-0.5  c24.1-23.6,50.8-41.2,85.2-58.4C203.5-0.4,169.5-1.1,137.3,1.7L137.3,1.7z M105.8,61.7c1.3,6.1,2.5,17.1,2.1,21.2  c7.3,7,34.1,8.4,55.6,0.7c22.6-8,42.4-25.3,42.1-36.3c-2.3-4-4.9-10.1-6.3-15.1c-15.2,10.1-29,21.4-42,34.1  C140.2,63.8,123.2,61.9,105.8,61.7L105.8,61.7z"
     id="path11"
     style="fill:#ffffff;fill-opacity:1" /></svg>